<?xml version="1.0" encoding="utf-8"?>
<!-- Generator: Adobe Illustrator 24.3.0, SVG Export Plug-In . SVG Version: 6.00 Build 0)  -->
<svg version="1.1" id="Layer_1" xmlns="http://www.w3.org/2000/svg" xmlns:xlink="http://www.w3.org/1999/xlink" x="0px" y="0px"
	 viewBox="0 0 3000 2000" style="enable-background:new 0 0 3000 2000;" xml:space="preserve">
<style type="text/css">
	.st0{fill:#FFFFFF;}
</style>
<g>
	<g>
		<polygon class="st0" points="801.76,881.67 841.09,842.34 872.63,873.89 794.24,954 802.1,961.69 880.41,881.67 920.16,921.42 
			920.23,921.5 927.98,913.69 841.09,826.8 754.2,913.69 761.94,921.5 		"/>
		<polygon class="st0" points="958.92,960.18 966.67,967.94 998.74,1000.01 964.29,1034.45 881.25,950.89 835.45,995.55 
			843.13,1003.42 881.13,966.36 956.52,1042.22 925.05,1073.69 917.29,1081.46 882.98,1115.76 875.22,1123.53 841.09,1157.66 
			806.96,1123.53 885.06,1045.8 877.31,1038.01 799.19,1115.76 764.89,1081.46 804.62,1042.23 759.43,995.91 751.56,1003.58 
			789.12,1042.09 757.11,1073.69 683.44,1000.01 723.25,960.18 715.52,952.37 667.88,1000.01 841.09,1173.2 1014.29,1000.01 
			966.65,952.37 		"/>
	</g>
	<g>
		<path class="st0" d="M1179.23,1066.77c-37.66,0-68.3-30.64-68.3-68.3s30.64-68.3,68.3-68.3c18.32,0,35.48,7.14,48.4,20.12
			l-15.53,16.52c-8.57-8.89-20.5-13.97-32.86-13.97c-25.17,0-45.64,20.47-45.64,45.64s20.47,45.64,45.64,45.64
			c11.41,0,22.29-4.21,30.71-11.88l16.64,15.45C1213.81,1060,1197.02,1066.77,1179.23,1066.77z"/>
		<path class="st0" d="M1313.01,1066.78c-37.66,0-68.3-30.64-68.3-68.3s30.64-68.3,68.3-68.3c37.66,0,68.3,30.64,68.3,68.3
			S1350.68,1066.78,1313.01,1066.78z M1313.01,952.83c-25.17,0-45.64,20.47-45.64,45.64c0,25.17,20.47,45.64,45.64,45.64
			s45.64-20.47,45.64-45.64C1358.66,973.31,1338.18,952.83,1313.01,952.83z"/>
		<path class="st0" d="M1414.19,1067.91v-23.8h45.22c12.09,0,23.49-4.68,32.08-13.17c8.59-8.49,13.4-19.81,13.56-31.88
			c-0.31-24.87-20.78-45.09-45.64-45.09h-45.22v-23.8h45.22c19.93,0,38.82,8.68,51.81,23.81c0,0,0.28,0.33,0.34,0.39
			c10.42,12.28,16.16,27.95,16.16,44.09v1.14c0,16.15-5.74,31.81-16.17,44.11l-0.32,0.37c-13,15.14-31.88,23.82-51.81,23.82H1414.19
			z"/>
		<rect x="1559.67" y="930.17" class="st0" width="90.74" height="23.8"/>
		<rect x="1689.63" y="930.17" class="st0" width="90.74" height="23.8"/>
		<rect x="1559.67" y="1044.11" class="st0" width="90.74" height="23.8"/>
		<rect x="1559.67" y="986.57" class="st0" width="79.88" height="23.8"/>
		<polygon class="st0" points="1689.74,1067.91 1689.66,1010.37 1689.63,1010.37 1689.63,986.57 1769.51,986.57 1769.51,1010.37 
			1713.54,1010.37 1713.54,1067.91 		"/>
		<polygon class="st0" points="1815.17,930.17 1838.97,930.17 1838.97,1048.43 1815.17,1067.18 		"/>
		<polygon class="st0" points="2030.87,930.17 2054.67,930.17 2054.67,1048.43 2030.87,1067.18 		"/>
		<polygon class="st0" points="2100.7,1067.91 2100.7,930.17 2170.57,930.17 2170.57,953.97 2124.5,953.97 2124.5,1067.91 		"/>
		<polygon class="st0" points="1876.73,931.07 1900.75,953.34 1970.87,1015.86 1970.87,949.66 1994.67,930.91 1994.67,1067.07 
			1900.53,984.52 1900.53,1048.43 1876.73,1067.17 		"/>
		<polygon class="st0" points="2252.48,1067.91 2252.48,1003.35 2197.32,930.17 2224.02,930.17 2264.72,981.36 2305.41,930.17 
			2332.12,930.17 2276.96,1003.35 2276.96,1067.91 		"/>
	</g>
</g>
</svg>
